<?xml version="1.0" encoding="UTF-8" standalone="no"?><svg width="101px" height="102px" viewBox="0 0 101 102" version="1.1" xmlns="http://www.w3.org/2000/svg" xmlns:xlink="http://www.w3.org/1999/xlink" xmlns:sketch="http://www.bohemiancoding.com/sketch/ns">        <title>collect rent</title>    <desc>Created with Sketch.</desc>    <defs></defs>    <g id="Page-1" stroke="none" stroke-width="1" fill="none" fill-rule="evenodd" sketch:type="MSPage">        <g id="collect-rent" sketch:type="MSLayerGroup">            <path d="M50.404,0.527 C78.171,0.527 100.681,23.037 100.681,50.804 C100.681,78.571 78.171,101.081 50.404,101.081 C22.637,101.081 0.127,78.571 0.127,50.804 C0.127,23.037 22.637,0.527 50.404,0.527" id="Fill-1" fill="#EEEEE7" sketch:type="MSShapeGroup"></path>            <path d="M73.926,80.479 L29.501,80.479 C28.451,80.479 27.598,79.626 27.598,78.576 L27.598,58.775 C27.598,57.725 28.451,56.871 29.501,56.871 L73.926,56.871 C74.976,56.871 75.829,57.725 75.829,58.775 L75.829,78.576 C75.829,79.624 74.974,80.479 73.926,80.479" id="Fill-2" fill="#DEDDD3" sketch:type="MSShapeGroup"></path>            <path d="M72.159,53.664 L27.736,53.664 C26.686,53.664 25.833,52.81 25.833,51.76 L25.833,22.06 C25.833,21.01 26.686,20.156 27.736,20.156 L72.161,20.156 C73.211,20.156 74.064,21.01 74.064,22.06 L74.064,51.76 C74.063,52.81 73.209,53.664 72.159,53.664 L72.159,53.664 Z M28.116,51.381 L71.777,51.381 L71.777,22.441 L28.116,22.441 L28.116,51.381 Z" id="Fill-3" fill="#B6B6B7" sketch:type="MSShapeGroup"></path>            <path d="M72.159,78.541 L27.736,78.541 C26.686,78.541 25.833,77.687 25.833,76.637 L25.833,56.838 C25.833,55.788 26.686,54.934 27.736,54.934 L72.161,54.934 C73.211,54.934 74.064,55.788 74.064,56.838 L74.064,76.639 C74.063,77.687 73.209,78.541 72.159,78.541" id="Fill-4" fill="#B6B6B7" sketch:type="MSShapeGroup"></path>            <path d="M40.39,62.652 C40.39,62.955 40.143,63.203 39.839,63.203 L36.387,63.203 C36.083,63.203 35.836,62.955 35.836,62.652 L35.836,59.899 C35.836,59.595 36.083,59.348 36.387,59.348 L39.839,59.348 C40.143,59.348 40.39,59.595 40.39,59.899 L40.39,62.652" id="Fill-5" fill="#6F6F6F" sketch:type="MSShapeGroup"></path>            <path d="M46.427,62.652 C46.427,62.955 46.18,63.203 45.876,63.203 L42.424,63.203 C42.12,63.203 41.873,62.955 41.873,62.652 L41.873,59.899 C41.873,59.595 42.12,59.348 42.424,59.348 L45.876,59.348 C46.18,59.348 46.427,59.595 46.427,59.899 L46.427,62.652" id="Fill-6" fill="#6F6F6F" sketch:type="MSShapeGroup"></path>            <path d="M52.464,62.652 C52.464,62.955 52.217,63.203 51.913,63.203 L48.461,63.203 C48.157,63.203 47.91,62.955 47.91,62.652 L47.91,59.899 C47.91,59.595 48.157,59.348 48.461,59.348 L51.913,59.348 C52.217,59.348 52.464,59.595 52.464,59.899 L52.464,62.652" id="Fill-7" fill="#6F6F6F" sketch:type="MSShapeGroup"></path>            <path d="M58.216,62.67 C58.216,62.965 57.978,63.203 57.684,63.203 L54.349,63.203 C54.054,63.203 53.816,62.965 53.816,62.67 L53.816,60.009 C53.816,59.715 54.054,59.477 54.349,59.477 L57.684,59.477 C57.978,59.477 58.216,59.715 58.216,60.009 L58.216,62.67" id="Fill-8" fill="#6F6F6F" sketch:type="MSShapeGroup"></path>            <path d="M64.053,62.67 C64.053,62.965 63.815,63.203 63.521,63.203 L60.186,63.203 C59.891,63.203 59.654,62.965 59.654,62.67 L59.654,60.009 C59.654,59.715 59.891,59.477 60.186,59.477 L63.521,59.477 C63.815,59.477 64.053,59.715 64.053,60.009 L64.053,62.67" id="Fill-9" fill="#6F6F6F" sketch:type="MSShapeGroup"></path>            <path d="M69.953,62.67 C69.953,62.965 69.715,63.203 69.421,63.203 L66.086,63.203 C65.791,63.203 65.554,62.965 65.554,62.67 L65.554,60.009 C65.554,59.715 65.791,59.477 66.086,59.477 L69.421,59.477 C69.715,59.477 69.953,59.715 69.953,60.009 L69.953,62.67" id="Fill-10" fill="#6F6F6F" sketch:type="MSShapeGroup"></path>            <path d="M40.39,67.919 C40.39,68.222 40.143,68.47 39.839,68.47 L36.387,68.47 C36.083,68.47 35.836,68.222 35.836,67.919 L35.836,65.166 C35.836,64.862 36.083,64.615 36.387,64.615 L39.839,64.615 C40.143,64.615 40.39,64.862 40.39,65.166 L40.39,67.919" id="Fill-11" fill="#6F6F6F" sketch:type="MSShapeGroup"></path>            <path d="M34.417,62.652 C34.417,62.955 34.17,63.203 33.866,63.203 L30.415,63.203 C30.111,63.203 29.864,62.955 29.864,62.652 L29.864,59.899 C29.864,59.595 30.111,59.348 30.415,59.348 L33.866,59.348 C34.17,59.348 34.417,59.595 34.417,59.899 L34.417,62.652" id="Fill-12" fill="#6F6F6F" sketch:type="MSShapeGroup"></path>            <path d="M69.914,73.461 C69.914,73.756 69.676,73.993 69.381,73.993 L66.046,73.993 C65.752,73.993 65.514,73.756 65.514,73.461 L65.514,70.8 C65.514,70.506 65.752,70.268 66.046,70.268 L69.381,70.268 C69.676,70.268 69.914,70.506 69.914,70.8 L69.914,73.461" id="Fill-13" fill="#6F6F6F" sketch:type="MSShapeGroup"></path>            <path d="M34.417,73.442 C34.417,73.746 34.17,73.993 33.866,73.993 L30.415,73.993 C30.111,73.993 29.864,73.746 29.864,73.442 L29.864,70.69 C29.864,70.386 30.111,70.139 30.415,70.139 L33.866,70.139 C34.17,70.139 34.417,70.386 34.417,70.69 L34.417,73.442" id="Fill-14" fill="#6F6F6F" sketch:type="MSShapeGroup"></path>            <path d="M34.417,67.919 C34.417,68.222 34.17,68.47 33.866,68.47 L30.415,68.47 C30.111,68.47 29.864,68.222 29.864,67.919 L29.864,65.166 C29.864,64.862 30.111,64.615 30.415,64.615 L33.866,64.615 C34.17,64.615 34.417,64.862 34.417,65.166 L34.417,67.919" id="Fill-15" fill="#6F6F6F" sketch:type="MSShapeGroup"></path>            <path d="M46.427,67.919 C46.427,68.222 46.18,68.47 45.876,68.47 L42.424,68.47 C42.12,68.47 41.873,68.222 41.873,67.919 L41.873,65.166 C41.873,64.862 42.12,64.615 42.424,64.615 L45.876,64.615 C46.18,64.615 46.427,64.862 46.427,65.166 L46.427,67.919" id="Fill-16" fill="#6F6F6F" sketch:type="MSShapeGroup"></path>            <path d="M52.464,67.919 C52.464,68.222 52.217,68.47 51.913,68.47 L48.461,68.47 C48.157,68.47 47.91,68.222 47.91,67.919 L47.91,65.166 C47.91,64.862 48.157,64.615 48.461,64.615 L51.913,64.615 C52.217,64.615 52.464,64.862 52.464,65.166 L52.464,67.919" id="Fill-17" fill="#6F6F6F" sketch:type="MSShapeGroup"></path>            <path d="M58.216,67.936 C58.216,68.23 57.978,68.468 57.684,68.468 L54.349,68.468 C54.054,68.468 53.816,68.23 53.816,67.936 L53.816,65.275 C53.816,64.98 54.054,64.743 54.349,64.743 L57.684,64.743 C57.978,64.743 58.216,64.98 58.216,65.275 L58.216,67.936" id="Fill-18" fill="#6F6F6F" sketch:type="MSShapeGroup"></path>            <path d="M69.887,67.936 C69.887,68.23 69.649,68.468 69.355,68.468 L60.23,68.468 C59.935,68.468 59.698,68.23 59.698,67.936 L59.698,65.275 C59.698,64.98 59.935,64.743 60.23,64.743 L69.355,64.743 C69.649,64.743 69.887,64.98 69.887,65.275 L69.887,67.936" id="Fill-19" fill="#6F6F6F" sketch:type="MSShapeGroup"></path>            <path d="M64.384,73.442 C64.384,73.746 64.136,73.993 63.833,73.993 L36.351,73.993 C36.047,73.993 35.8,73.746 35.8,73.442 L35.8,70.69 C35.8,70.386 36.047,70.139 36.351,70.139 L63.833,70.139 C64.136,70.139 64.384,70.386 64.384,70.69 L64.384,73.442" id="Fill-20" fill="#6F6F6F" sketch:type="MSShapeGroup"></path>            <path d="M27.957,22.354 L72.126,22.354 L72.126,51.545 L27.957,51.545 L27.957,22.354 Z" id="Fill-21" fill="#161616" sketch:type="MSShapeGroup"></path>            <path d="M50.702,28.563 C55.29,28.563 59.01,32.283 59.01,36.871 C59.01,41.459 55.29,45.178 50.702,45.178 C46.114,45.178 42.394,41.459 42.394,36.871 C42.394,32.283 46.114,28.563 50.702,28.563" id="Fill-22" fill="#00A098" sketch:type="MSShapeGroup"></path>            <path d="M88.13,45.202 C92.293,45.202 95.668,48.577 95.668,52.74 C95.668,56.902 92.293,60.277 88.13,60.277 C83.967,60.277 80.592,56.902 80.592,52.74 C80.592,48.577 83.967,45.202 88.13,45.202" id="Fill-23" fill="#DEDDD3" sketch:type="MSShapeGroup"></path>            <path d="M87.167,45.111 C91.002,45.111 94.112,48.22 94.112,52.056 C94.112,55.892 91.002,59.002 87.167,59.002 C83.331,59.002 80.221,55.892 80.221,52.056 C80.221,48.22 83.331,45.111 87.167,45.111" id="Fill-24" fill="#DD4727" sketch:type="MSShapeGroup"></path>            <path d="M87.167,43.446 C91.224,43.446 94.514,46.736 94.514,50.793 C94.514,54.851 91.224,58.14 87.167,58.14 C83.109,58.14 79.819,54.851 79.819,50.793 C79.819,46.736 83.109,43.446 87.167,43.446" id="Fill-25" fill="#DD4727" sketch:type="MSShapeGroup"></path>            <path d="M87.167,41.78 C91.446,41.78 94.915,45.249 94.915,49.529 C94.915,53.808 91.446,57.278 87.167,57.278 C82.887,57.278 79.418,53.808 79.418,49.529 C79.418,45.249 82.887,41.78 87.167,41.78" id="Fill-26" fill="#DD4727" sketch:type="MSShapeGroup"></path>            <path d="M87.167,43.334 C90.588,43.334 93.361,46.108 93.361,49.529 C93.361,52.95 90.588,55.723 87.167,55.723 C83.745,55.723 80.972,52.95 80.972,49.529 C80.972,46.108 83.745,43.334 87.167,43.334" id="Fill-27" fill="#31251B" sketch:type="MSShapeGroup"></path>            <path d="M94.468,59.605 C94.235,59.838 93.751,59.732 93.388,59.367 L91.331,57.31 C90.968,56.947 90.861,56.463 91.094,56.23 L92.229,55.095 C92.462,54.862 92.945,54.967 93.309,55.333 L95.365,57.389 C95.729,57.753 95.836,58.236 95.603,58.47 L94.468,59.605" id="Fill-28" fill="#DD4727" sketch:type="MSShapeGroup"></path>            <path d="M53.453,37.611 C53.358,37.382 53.229,37.195 53.069,37.047 C52.906,36.899 52.721,36.77 52.51,36.655 C52.298,36.543 52.078,36.452 51.847,36.381 C51.615,36.31 51.384,36.244 51.155,36.186 C50.927,36.127 50.707,36.066 50.494,36.006 C50.283,35.946 50.097,35.883 49.935,35.814 C49.773,35.745 49.647,35.657 49.551,35.55 C49.456,35.443 49.408,35.315 49.408,35.17 C49.408,34.906 49.518,34.69 49.74,34.523 C49.962,34.356 50.253,34.273 50.62,34.273 C51.011,34.273 51.385,34.342 51.751,34.482 C52.113,34.622 52.434,34.83 52.713,35.109 L53.424,34.17 C52.872,33.633 52.185,33.314 51.366,33.207 L51.366,31.624 L50.141,31.624 L50.141,33.21 C49.631,33.288 49.198,33.471 48.844,33.764 C48.359,34.165 48.116,34.668 48.116,35.272 C48.116,35.554 48.165,35.806 48.26,36.028 C48.354,36.25 48.483,36.433 48.644,36.576 C48.805,36.719 48.992,36.842 49.203,36.948 C49.414,37.053 49.633,37.14 49.864,37.209 C50.094,37.278 50.325,37.341 50.555,37.4 C50.787,37.46 51.007,37.516 51.218,37.576 C51.429,37.636 51.615,37.705 51.777,37.779 C51.938,37.855 52.066,37.952 52.162,38.074 C52.258,38.195 52.305,38.333 52.305,38.497 C52.305,38.771 52.187,39.007 51.951,39.204 C51.713,39.4 51.355,39.499 50.874,39.499 C50.406,39.499 49.978,39.404 49.59,39.214 C49.2,39.023 48.871,38.782 48.6,38.489 L47.883,39.473 C48.482,40.086 49.236,40.447 50.145,40.565 L50.145,42.038 L51.365,42.038 L51.365,40.579 C51.532,40.56 51.691,40.53 51.842,40.492 C52.154,40.413 52.415,40.306 52.628,40.169 C52.842,40.032 53.023,39.869 53.171,39.681 C53.319,39.492 53.426,39.289 53.495,39.072 C53.565,38.855 53.598,38.626 53.598,38.384 C53.594,38.096 53.547,37.837 53.453,37.611" id="Fill-29" fill="#FFFFFF" sketch:type="MSShapeGroup"></path>            <path d="M13.307,44.737 L8.997,46.18 L7.975,43.123 C7.86,42.777 8.046,42.402 8.392,42.287 L11.449,41.265 C11.795,41.15 12.17,41.336 12.285,41.683 L13.307,44.737" id="Fill-30" fill="#E7C4DC" sketch:type="MSShapeGroup"></path>            <path d="M8.958,46.021 L13.251,44.585 L18.467,60.168 L14.174,61.604 L8.958,46.021" id="Fill-31" fill="#FFCC07" sketch:type="MSShapeGroup"></path>            <path d="M8.959,46.023 L9.993,45.677 L15.208,61.26 L14.175,61.605 L8.959,46.023" id="Fill-32" fill="#F9A233" sketch:type="MSShapeGroup"></path>            <path d="M12.193,44.939 L13.227,44.593 L18.442,60.176 L17.409,60.522 L12.193,44.939" id="Fill-33" fill="#FFE061" sketch:type="MSShapeGroup"></path>            <path d="M14.176,61.603 L17.783,65.358 L18.445,60.175 L14.176,61.603" id="Fill-34" fill="#DEDDD3" sketch:type="MSShapeGroup"></path>            <path d="M16.198,63.648 L17.774,65.289 L18.062,63.023 L16.198,63.648" id="Fill-35" fill="#161616" sketch:type="MSShapeGroup"></path>            <path d="M87.233,44.477 C89.249,44.477 90.884,45.45 90.884,46.649 C90.884,47.848 89.249,48.82 87.233,48.82 C85.216,48.82 83.581,47.848 83.581,46.649 C83.581,45.45 85.216,44.477 87.233,44.477" id="Fill-36" fill="#564337" sketch:type="MSShapeGroup"></path>        </g>    </g></svg>