<?xml version="1.0" encoding="UTF-8" standalone="no"?><svg width="100px" height="101px" viewBox="0 0 100 101" version="1.1" xmlns="http://www.w3.org/2000/svg" xmlns:xlink="http://www.w3.org/1999/xlink" xmlns:sketch="http://www.bohemiancoding.com/sketch/ns">        <title>screening tools</title>    <desc>Created with Sketch.</desc>    <defs></defs>    <g id="Page-1" stroke="none" stroke-width="1" fill="none" fill-rule="evenodd" sketch:type="MSPage">        <g id="screening-tools" sketch:type="MSLayerGroup">            <path d="M50.15,0.527 C77.681,0.527 100,22.846 100,50.377 C100,77.908 77.681,100.227 50.15,100.227 C22.619,100.227 0.3,77.908 0.3,50.377 C0.3,22.846 22.619,0.527 50.15,0.527" id="Fill-1" fill="#EEEEE7" sketch:type="MSShapeGroup"></path>            <path d="M69.851,26.652 C70.962,26.652 71.863,27.553 71.863,28.664 L71.863,74.185 C71.863,75.296 70.962,76.197 69.851,76.197 L35.134,76.197 C34.022,76.197 33.121,75.296 33.121,74.185 L33.121,28.664 C33.121,27.553 34.022,26.652 35.134,26.652 L69.851,26.652 M69.851,22.626 L35.134,22.626 C31.803,22.626 29.096,25.335 29.096,28.664 L29.096,74.185 C29.096,77.515 31.805,80.222 35.134,80.222 L69.851,80.222 C73.182,80.222 75.889,77.513 75.889,74.185 L75.889,28.664 C75.889,25.334 73.182,22.626 69.851,22.626" id="Fill-2" fill="#DEDDD3" sketch:type="MSShapeGroup"></path>            <path d="M67.839,24.638 C68.95,24.638 69.851,25.539 69.851,26.65 L69.851,72.171 C69.851,73.282 68.95,74.183 67.839,74.183 L33.121,74.183 C32.01,74.183 31.109,73.282 31.109,72.171 L31.109,26.652 C31.109,25.541 32.01,24.64 33.121,24.64 L67.839,24.638 M67.839,20.613 L33.121,20.613 C29.791,20.613 27.084,23.322 27.084,26.65 L27.084,72.171 C27.084,75.501 29.793,78.209 33.121,78.209 L67.839,78.209 C71.17,78.209 73.877,75.5 73.877,72.171 L73.877,26.652 C73.877,23.322 71.168,20.613 67.839,20.613" id="Fill-3" fill="#11AF4B" sketch:type="MSShapeGroup"></path>            <path d="M69.851,72.296 C69.851,73.407 68.95,74.308 67.839,74.308 L32.997,74.308 C31.885,74.308 30.985,73.407 30.985,72.296 L30.985,26.652 C30.985,25.541 31.885,24.64 32.997,24.64 L67.838,24.64 C68.949,24.64 69.85,25.541 69.85,26.652 L69.851,72.296" id="Fill-4" fill="#FFFFFF" sketch:type="MSShapeGroup"></path>            <path d="M38.097,54.504 L62.848,54.504 L62.848,56.579 L38.097,56.579 L38.097,54.504 Z" id="Fill-5" fill="#B9B9BA" sketch:type="MSShapeGroup"></path>            <path d="M38.097,59.965 L62.848,59.965 L62.848,62.04 L38.097,62.04 L38.097,59.965 Z" id="Fill-6" fill="#B9B9BA" sketch:type="MSShapeGroup"></path>            <path d="M38.097,65.264 L59.2,65.264 L59.2,67.339 L38.097,67.339 L38.097,65.264 Z" id="Fill-7" fill="#B9B9BA" sketch:type="MSShapeGroup"></path>            <path d="M59.412,49.323 L40.858,49.323 L41.783,43.249 C41.865,42.599 42.377,42.114 42.984,42.114 L46.249,41.512 C47.372,42.753 48.793,43.522 50.087,43.522 C51.384,43.522 52.81,42.749 53.932,41.504 L57.286,42.114 C57.893,42.114 58.405,42.599 58.487,43.249 L59.412,49.323" id="Fill-8" fill="#6F6F6F" sketch:type="MSShapeGroup"></path>            <path d="M50.085,41.812 C48.451,41.812 45.932,39.465 45.932,36.347 C45.932,33.521 47.601,31.623 50.085,31.623 C52.57,31.623 54.239,33.521 54.239,36.347 C54.239,39.465 51.72,41.812 50.085,41.812" id="Fill-9" fill="#6F6F6F" sketch:type="MSShapeGroup"></path>            <path d="M64.424,57.992 C70.127,57.992 74.751,62.616 74.751,68.319 C74.751,74.023 70.127,78.647 64.424,78.647 C58.72,78.647 54.097,74.023 54.097,68.319 C54.097,62.616 58.72,57.992 64.424,57.992" id="Fill-10" fill="#FFFFFF" sketch:type="MSShapeGroup"></path>            <path d="M55.252,69.886 L66.565,69.886 L66.565,73.374 L55.252,73.374 L55.252,69.886 Z" id="Fill-11" fill="#DADAD9" sketch:type="MSShapeGroup"></path>            <path d="M55.252,62.914 L66.565,62.914 L66.565,66.402 L55.252,66.402 L55.252,62.914 Z" id="Fill-12" fill="#DADAD9" sketch:type="MSShapeGroup"></path>            <path d="M80.983,81.858 L73.945,74.82 C73.83,74.705 73.705,74.607 73.575,74.517 C74.667,72.786 75.311,70.744 75.311,68.552 C75.311,62.367 70.278,57.335 64.094,57.335 C57.909,57.335 52.876,62.367 52.876,68.552 C52.876,74.736 57.909,79.769 64.094,79.769 C66.287,79.769 68.328,79.127 70.059,78.033 C70.147,78.163 70.246,78.289 70.362,78.403 L77.398,85.444 C77.893,85.939 78.543,86.187 79.191,86.187 C79.839,86.187 80.488,85.939 80.983,85.444 C81.974,84.453 81.974,82.849 80.983,81.858 L80.983,81.858 Z M55.41,68.552 C55.41,63.764 59.304,59.87 64.092,59.87 C68.879,59.87 72.774,63.764 72.774,68.552 C72.774,73.339 68.879,77.233 64.092,77.233 C59.304,77.233 55.41,73.339 55.41,68.552 L55.41,68.552 Z" id="Fill-13" fill="#3F4040" sketch:type="MSShapeGroup"></path>        </g>    </g></svg>