<?xml version="1.0" encoding="UTF-8" standalone="no"?><svg width="102px" height="102px" viewBox="0 0 102 102" version="1.1" xmlns="http://www.w3.org/2000/svg" xmlns:xlink="http://www.w3.org/1999/xlink" xmlns:sketch="http://www.bohemiancoding.com/sketch/ns">        <title>Renter Profile</title>    <desc>Created with Sketch.</desc>    <defs></defs>    <g id="Page-1" stroke="none" stroke-width="1" fill="none" fill-rule="evenodd" sketch:type="MSPage">        <g id="Renter-Profile" sketch:type="MSLayerGroup">            <path d="M51.085,0.48 C78.849,0.48 101.356,22.987 101.356,50.75 C101.356,78.514 78.849,101.021 51.085,101.021 C23.322,101.021 0.815,78.514 0.815,50.75 C0.815,22.987 23.322,0.48 51.085,0.48" id="Fill-1" fill="#EEEEE7" sketch:type="MSShapeGroup"></path>            <path d="M51.873,73.263 C52.724,74.884 54.421,75.993 56.375,75.993 L85.614,75.993 C88.422,75.993 90.699,73.717 90.699,70.909 L90.699,51.971 C90.699,50.744 91.693,49.75 92.919,49.75 C94.069,49.75 95,48.819 95,47.67 L95,38.466 C95,37.317 94.069,36.386 92.919,36.386 C91.693,36.386 90.699,35.392 90.699,34.165 L90.699,32.573 C90.699,29.764 88.422,27.487 85.613,27.487 L56.375,27.487 C54.42,27.487 52.723,28.597 51.872,30.217 L51.873,73.263" id="Fill-2" fill="#F9A233" sketch:type="MSShapeGroup"></path>            <path d="M87.671,71.596 C87.671,72.556 86.892,73.335 85.932,73.335 L55.824,73.335 C54.864,73.335 54.085,72.556 54.085,71.596 L54.085,32.155 C54.085,31.194 54.864,30.416 55.824,30.416 L85.931,30.416 C86.891,30.416 87.669,31.194 87.669,32.155 L87.671,71.596" id="Fill-3" fill="#FFFFFF" sketch:type="MSShapeGroup"></path>            <path d="M60.231,56.222 L81.619,56.222 L81.619,58.015 L60.231,58.015 L60.231,56.222 Z" id="Fill-4" fill="#B9B9BA" sketch:type="MSShapeGroup"></path>            <path d="M60.231,60.941 L81.619,60.941 L81.619,62.734 L60.231,62.734 L60.231,60.941 Z" id="Fill-5" fill="#B9B9BA" sketch:type="MSShapeGroup"></path>            <path d="M60.231,65.52 L78.467,65.52 L78.467,67.313 L60.231,67.313 L60.231,65.52 Z" id="Fill-6" fill="#B9B9BA" sketch:type="MSShapeGroup"></path>            <path d="M78.65,51.745 L62.617,51.745 L63.416,46.496 C63.487,45.935 63.93,45.516 64.454,45.516 L67.276,44.995 C68.246,46.068 69.473,46.733 70.592,46.733 C71.713,46.733 72.945,46.065 73.915,44.989 L76.813,45.516 C77.337,45.516 77.78,45.935 77.851,46.496 L78.65,51.745" id="Fill-7" fill="#6F6F6F" sketch:type="MSShapeGroup"></path>            <path d="M70.591,45.255 C69.178,45.255 67.001,43.227 67.001,40.532 C67.001,38.09 68.444,36.45 70.591,36.45 C72.737,36.45 74.18,38.09 74.18,40.532 C74.18,43.227 72.003,45.255 70.591,45.255" id="Fill-8" fill="#6F6F6F" sketch:type="MSShapeGroup"></path>            <path d="M47.872,75.993 L17.122,75.993 C14.922,75.993 13.122,74.193 13.122,71.993 L13.122,31.743 C13.122,29.543 14.922,27.743 17.122,27.743 L47.872,27.743 C50.072,27.743 51.872,29.543 51.872,31.743 L51.872,71.993 C51.872,74.193 50.072,75.993 47.872,75.993" id="Fill-9" fill="#DD4727" sketch:type="MSShapeGroup"></path>            <path d="M43.957,67.971 L28.084,65.962 L30.009,50.75 L45.882,52.759 L43.957,67.971" id="Fill-10" fill="#FFF276" sketch:type="MSShapeGroup"></path>            <path d="M35.55,63.177 L32.345,59.981 C32.059,59.694 32.059,59.24 32.345,58.952 C32.632,58.665 33.086,58.666 33.374,58.952 L35.534,61.112 L40.588,55.97 C40.875,55.684 41.329,55.675 41.617,55.963 C41.903,56.249 41.912,56.704 41.624,56.992 L35.55,63.177" id="Fill-11" fill="#11AF4B" sketch:type="MSShapeGroup"></path>        </g>    </g></svg>