<svg xmlns="http://www.w3.org/2000/svg" width="370" height="365"><path d="M338.592 1.495H79.812v308.8h258.78V1.495z" fill-rule="evenodd" fill="#fff"/><path d="M81.308 308.8h255.79V2.99H81.308V308.8m258.78 2.99H78.317V0h261.77v311.79z" fill-rule="evenodd" fill="#1f7edd"/><path d="M110.905 192.957h162.642-162.642z" fill-rule="evenodd" fill="#fff"/><path d="M273.547 194.452H110.905v-2.99h162.642v2.99z" fill-rule="evenodd" fill="#96d4ff"/><path d="M110.905 219.21h162.642-162.642z" fill-rule="evenodd" fill="#fff"/><path d="M273.547 220.707H110.905v-2.99h162.642v2.99z" fill-rule="evenodd" fill="#96d4ff"/><path d="M272.927 273.902a1.908 1.908 0 0 1-1.36 2.33l-63.334 16.636a1.908 1.908 0 0 1-2.33-1.36l-8.56-32.586a1.91 1.91 0 0 1 1.36-2.33l63.334-16.635a1.908 1.908 0 0 1 2.33 1.36l8.56 32.585z" fill-rule="evenodd" fill="#fff"/><path d="M262.523 241.165a.65.65 0 0 0-.163.02l-63.334 16.637a.637.637 0 0 0-.452.777l8.56 32.584a.636.636 0 0 0 .775.453L271.24 275a.636.636 0 0 0 .454-.776l-8.56-32.585a.634.634 0 0 0-.614-.476M207.745 294.2a3.182 3.182 0 0 1-3.073-2.37l-8.56-32.585a3.184 3.184 0 0 1 2.267-3.883l63.333-16.636a3.18 3.18 0 0 1 3.883 2.267l8.56 32.585c.214.82.098 1.677-.33 2.41a3.157 3.157 0 0 1-1.938 1.47L208.554 294.1c-.264.07-.537.104-.81.104z" fill-rule="evenodd" fill="#96d4ff"/><path d="M207.23 294.16a3.183 3.183 0 0 1-2.557-2.33l-8.56-32.584a3.16 3.16 0 0 1 .33-2.412 3.164 3.164 0 0 1 1.938-1.47l63.335-16.637a3.18 3.18 0 0 1 1.327-.063 3.187 3.187 0 0 1 2.557 2.33l8.56 32.586a3.184 3.184 0 0 1-2.268 3.882l-63.335 16.636a3.154 3.154 0 0 1-1.325.062z" fill-rule="evenodd" fill="#fff"/><path d="M262.522 239.893c-.16 0-.324.022-.484.063l-63.334 16.636a1.905 1.905 0 0 0-1.36 2.33l8.56 32.585a1.908 1.908 0 0 0 2.33 1.36l63.332-16.635a1.91 1.91 0 0 0 1.36-2.33l-8.56-32.584a1.907 1.907 0 0 0-1.844-1.425m-54.773 55.58a4.455 4.455 0 0 1-4.306-3.32l-8.56-32.584a4.42 4.42 0 0 1 .46-3.378 4.422 4.422 0 0 1 2.712-2.06l63.333-16.635a4.44 4.44 0 0 1 1.856-.088 4.458 4.458 0 0 1 3.58 3.26l8.56 32.586a4.457 4.457 0 0 1-3.175 5.435l-63.332 16.637a4.487 4.487 0 0 1-1.13.146z" fill-rule="evenodd" fill="#96d4ff"/><path d="M215.382 260.653l.78 2.976-3.865 1.013 1.628 6.2 3.714-.977.78 2.977-3.715.975 2.452 9.327-3.283.863-5.643-21.48 7.15-1.877zM227.498 280.432l-3.284.863-5.643-21.48 3.287-.864 5.642 21.483zM232.257 256.22l2.945-.774 5.642 21.48-3.56.934-7.15-13.604 3.837 14.476-2.943.773-5.643-21.48 3.836-1.008 6.574 12.543-3.537-13.34zM245.88 268.88l2.67-.703-4.14-10.394 1.47 11.096m5.825-1.505l2.548 6.028-3.252.854-1.316-3.262-3.405.895.486 3.48-3.038.798-2.582-22.316 4.358-1.146 6.202 14.67zM254.776 250.305l4.86 18.503 3.622-.95.782 2.975-6.905 1.814-5.643-21.48 3.284-.862z" fill-rule="evenodd" fill="#96d4ff"/><path d="M110.905 245.466h61.576" fill-rule="evenodd" fill="#fff"/><path d="M172.48 246.96h-61.575v-2.99h61.576v2.99z" fill-rule="evenodd" fill="#96d4ff"/><path d="M309.145 193.424v4.06c1.412-.113 2.22-.854 2.22-1.93 0-1.008-.47-1.614-2.22-2.13m-1.77-7.085c-1.414.11-2.154.895-2.154 1.88 0 .944.428 1.55 2.155 2.064v-3.946m1.86 13.407v2.22h-1.95v-2.242c-1.95-.224-3.768-1.01-5.292-2.22l1.435-2.04c1.278 1.032 2.49 1.704 3.947 1.928V193c-3.274-.854-4.798-2.087-4.798-4.62 0-2.423 1.905-4.082 4.708-4.305v-1.3h1.95v1.344c1.638.2 2.983.783 4.215 1.703l-1.255 2.107c-.987-.74-1.997-1.21-3.05-1.435v4.26c3.408.854 4.865 2.222 4.865 4.643 0 2.466-1.928 4.103-4.776 4.35zM309.145 220.332v4.06c1.412-.113 2.22-.854 2.22-1.93 0-1.01-.47-1.614-2.22-2.13m-1.77-7.085c-1.414.112-2.154.897-2.154 1.883 0 .942.428 1.547 2.155 2.063v-3.946m1.86 13.408v2.22h-1.95v-2.242c-1.95-.225-3.768-1.01-5.292-2.22l1.435-2.04c1.278 1.03 2.49 1.704 3.947 1.928v-4.393c-3.274-.853-4.798-2.085-4.798-4.62 0-2.42 1.905-4.08 4.708-4.304v-1.3h1.95v1.345c1.638.2 2.983.785 4.215 1.704l-1.255 2.11c-.987-.74-1.997-1.21-3.05-1.437v4.26c3.408.853 4.865 2.22 4.865 4.642 0 2.467-1.928 4.103-4.776 4.35z" fill-rule="evenodd" fill="#97d5ff"/><path d="M115.17 310.295c0 19.527-15.83 35.356-35.356 35.356-19.527 0-35.357-15.827-35.357-35.354s15.83-35.357 35.357-35.357c19.526 0 35.356 15.83 35.356 35.356z" fill-rule="evenodd" fill="#fff"/><path d="M79.813 276.434c-18.67 0-33.86 15.19-33.86 33.86 0 18.672 15.19 33.862 33.86 33.862 18.672 0 33.86-15.19 33.86-33.86s-15.188-33.862-33.86-33.862m0 70.713c-20.32 0-36.852-16.532-36.852-36.852 0-20.32 16.533-36.85 36.854-36.85 20.32 0 36.85 16.53 36.85 36.85s-16.53 36.852-36.85 36.852z" fill-rule="evenodd" fill="#1f7edd"/><path d="M76.477 327.52c-.395 0-.776-.156-1.057-.437l-12.684-12.686 2.114-2.114 11.502 11.504 22.802-28.525 2.335 1.867-23.846 29.83c-.266.33-.66.534-1.086.56h-.083zM112.457 46.445v-4.217c0-6.49 3.52-11.18 10.264-11.18 6.126 0 9.72 3.848 9.976 8.798h-1.724c-.22-3.996-3.115-7.297-8.21-7.297-5.793 0-8.507 4.07-8.507 9.605v4.325c0 5.428 2.677 9.754 8.726 9.754 5.096 0 8.25-3.337 8.25-8.323v-1.134h-7.848V45.27h9.57v2.494c0 5.756-3.74 9.973-9.97 9.973-7.077 0-10.523-5.096-10.523-11.292zM153.595 57.224h-1.65v-3.777c-.734 2.383-3.042 4.216-6.598 4.216-4.144 0-6.746-2.75-6.746-7.37V38.6h1.76v11.474c0 3.776 1.724 6.086 5.39 6.086 3.374 0 6.086-2.346 6.086-6.71V38.6h1.76v18.623zM172.515 51.724c0-2.787-3.41-4.4-6.342-4.4-3.3 0-5.793 1.467-5.793 4.4 0 2.824 2.273 4.582 5.61 4.582 3.115 0 6.525-1.576 6.525-4.582m-13.82-.037c0-3.63 3.115-5.756 7.478-5.756 2.895 0 5.316 1.43 6.342 2.79v-3.704c0-3.08-2.017-5.426-5.316-5.426-2.75 0-4.584 1.32-5.464 3.444h-1.65c.88-3.08 3.63-4.874 7.112-4.874 4.215 0 7.075 2.932 7.075 6.78v12.284h-1.686V54.62c-.99 1.576-3.595 3.044-6.71 3.044-4.327 0-7.186-2.494-7.186-5.977zM180.328 38.6h1.65v4.618c.586-2.75 3.043-4.73 6.635-4.73h.183v1.614h-.183c-3.813 0-6.525 2.676-6.525 7.772v9.35h-1.76V38.598zM204.673 51.724c0-2.787-3.41-4.4-6.343-4.4-3.3 0-5.792 1.467-5.792 4.4 0 2.824 2.274 4.582 5.61 4.582 3.115 0 6.525-1.576 6.525-4.582m-13.82-.037c0-3.63 3.115-5.756 7.477-5.756 2.896 0 5.316 1.43 6.343 2.79v-3.704c0-3.08-2.017-5.426-5.315-5.426-2.75 0-4.584 1.32-5.464 3.444h-1.65c.88-3.08 3.63-4.874 7.114-4.874 4.215 0 7.076 2.932 7.076 6.78v12.284h-1.688V54.62c-.99 1.576-3.593 3.044-6.71 3.044-4.324 0-7.184-2.494-7.184-5.977zM212.485 38.6h1.65v3.775c.843-2.457 3.116-4.216 6.672-4.216 4.143 0 6.82 2.75 6.82 7.37V57.22h-1.76V45.748c0-3.776-1.797-6.085-5.463-6.085-3.373 0-6.16 2.345-6.16 6.71v10.85h-1.76V38.6zM240.242 57.224c-3.41 0-4.912-1.76-4.912-4.84V40.03h-3.41V38.6h3.41v-5.39h1.76v5.39h5.13v1.43h-5.13v12.354c0 2.382.88 3.41 3.408 3.41h1.65v1.43h-1.906zM247.686 47.25h12.208v-1.136c0-3.666-2.016-6.56-6.012-6.56-4.18-.002-6.196 2.748-6.196 6.818v.88m-1.724 2.42v-3.227c0-4.987 2.896-8.286 7.92-8.286 4.986 0 7.698 3.664 7.698 8.027v2.493h-13.894v1.1c0 3.63 2.2 6.49 6.306 6.49 3.042 0 5.022-1.723 5.792-4.216h1.54c-.734 3.3-3.556 5.61-7.332 5.61-4.95 0-8.03-3.227-8.03-7.993zM267.963 47.25h12.208v-1.136c0-3.666-2.014-6.56-6.01-6.56-4.18-.002-6.196 2.748-6.196 6.818v.88m-1.723 2.42v-3.227c0-4.987 2.897-8.286 7.92-8.286 4.986 0 7.7 3.664 7.7 8.027v2.493h-13.896v1.1c0 3.63 2.2 6.49 6.306 6.49 3.042 0 5.02-1.723 5.79-4.216h1.54c-.732 3.3-3.555 5.61-7.33 5.61-4.95 0-8.03-3.227-8.03-7.993zM288.278 49.45c0 3.85 2.09 6.783 6.196 6.783 3.63 0 6.38-2.97 6.38-6.855v-2.933c0-3.887-2.714-6.856-6.343-6.856-4.07 0-6.23 2.93-6.23 6.78v3.08m14.334-18.99v26.763h-1.65v-3.63c-.953 2.273-3.336 4.07-6.784 4.07-4.767 0-7.662-3.483-7.662-8.103v-3.298c0-4.62 2.895-8.103 7.66-8.103 3.34 0 5.685 1.72 6.675 3.884V30.46h1.76zM308.96 53.63h1.94l-2.345 7.517h-1.467l1.87-7.517zM114.18 84.03h-2.896V82.6h2.896v-2.71c0-3.74 1.723-5.426 5.28-5.426h2.236v1.43h-2.127c-2.678 0-3.63 1.246-3.63 3.85v2.86h5.095v1.43h-5.096v17.193h-1.76V84.03zM125.62 82.6h1.76v18.625h-1.76V82.6m.88-6.855c.88 0 1.393.624 1.393 1.356a1.36 1.36 0 0 1-1.392 1.36 1.36 1.36 0 0 1-1.393-1.358c0-.73.515-1.355 1.395-1.355zM147.03 101.225h-1.868l-5.61-8.175-5.61 8.175h-1.87l6.527-9.46-6.27-9.163h1.832l5.39 7.844 5.39-7.844h1.832l-6.27 9.164 6.526 9.46zM152.02 91.253h12.21v-1.137c0-3.666-2.017-6.56-6.013-6.56-4.18 0-6.196 2.747-6.196 6.817v.88m-1.72 2.42v-3.226c0-4.987 2.894-8.286 7.92-8.286 4.984 0 7.696 3.668 7.696 8.03v2.494H152.02v1.1c0 3.63 2.2 6.488 6.307 6.488 3.042 0 5.022-1.72 5.792-4.215h1.54c-.736 3.3-3.558 5.61-7.334 5.61-4.95 0-8.03-3.226-8.03-7.992zM172.334 93.453c0 3.85 2.09 6.782 6.196 6.782 3.63 0 6.38-2.97 6.38-6.856v-2.934c0-3.887-2.714-6.856-6.343-6.856-4.07 0-6.233 2.933-6.233 6.783v3.08M186.67 74.46v26.765h-1.65v-3.63c-.954 2.274-3.337 4.07-6.784 4.07-4.766 0-7.662-3.483-7.662-8.102v-3.3c0-4.62 2.896-8.102 7.662-8.102 3.337 0 5.684 1.726 6.674 3.888V74.46h1.76zM215.454 90.373c0-3.85-2.09-6.783-6.196-6.783-3.63 0-6.38 2.97-6.38 6.856v2.933c0 3.885 2.713 6.854 6.343 6.854 4.07 0 6.235-2.933 6.235-6.783v-3.08m-14.336 17.233V82.6h1.65v3.63c.953-2.273 3.336-4.07 6.782-4.07 4.767.003 7.663 3.485 7.663 8.104v3.3c0 4.62-2.896 8.102-7.662 8.102-3.336 0-5.682-1.723-6.672-3.886v9.824h-1.76zM222.643 82.6h1.65v4.62c.586-2.75 3.043-4.73 6.635-4.73h.184v1.615h-.184c-3.812 0-6.525 2.675-6.525 7.77v9.35h-1.76V82.6zM235.367 82.6h1.76v18.625h-1.76V82.6m.88-6.855c.88 0 1.393.624 1.393 1.356a1.36 1.36 0 0 1-1.393 1.36 1.36 1.36 0 0 1-1.394-1.358c0-.73.514-1.355 1.394-1.355zM242.736 93.563v-3.3c0-4.656 3.116-8.102 8.03-8.102 4.545 0 7.368 2.97 7.845 6.784H257c-.515-2.97-2.46-5.352-6.235-5.352-3.996 0-6.268 2.897-6.268 6.71v3.226c0 3.813 2.272 6.71 6.268 6.71 3.776 0 5.72-2.384 6.234-5.354h1.61c-.477 3.813-3.3 6.783-7.846 6.783-4.913 0-8.03-3.446-8.03-8.102zM264.297 82.6h1.76v18.625h-1.76V82.6m.88-6.855c.88 0 1.393.624 1.393 1.356a1.36 1.36 0 0 1-1.393 1.36 1.36 1.36 0 0 1-1.394-1.358c0-.73.514-1.355 1.394-1.355zM272.62 82.6h1.65v3.777c.843-2.457 3.116-4.216 6.672-4.216 4.143 0 6.82 2.75 6.82 7.37v11.696h-1.76V89.75c0-3.777-1.797-6.085-5.463-6.085-3.375 0-6.16 2.345-6.16 6.708v10.852h-1.76V82.6zM307.268 92.72v-2.676c0-3.484-2.787-6.453-6.306-6.453-3.996 0-6.233 2.458-6.233 6.27v2.934c0 3.85 2.162 6.27 6.12 6.27 3.448 0 6.417-2.53 6.417-6.343m-13.93 10.926h1.758c1.21 2.017 3.52 3.006 6.16 3.006 3.665 0 6.012-2.052 6.012-5.278v-4.84c-.697 1.797-3.263 3.96-6.636 3.96-4.73 0-7.625-3.3-7.625-7.516v-3.263c0-4.29 2.86-7.552 7.59-7.552 3.813 0 5.975 2.164 6.745 3.924V82.6h1.688v18.81c0 3.848-3.41 6.634-7.773 6.634-3.482 0-6.672-1.576-7.918-4.4z" fill-rule="evenodd" fill="#1f7edd"/><path d="M113.254 130.788c.897 0 1.302-.555 1.302-1.25 0-.697-.405-1.212-1.302-1.212h-1.432v2.462h1.432m-2.845-3.622h2.935c1.623 0 2.62.96 2.62 2.37 0 1.413-1.038 2.41-2.62 2.41h-1.524v2.28h-1.412v-7.06zM121.008 130.828c.868 0 1.31-.535 1.31-1.27 0-.757-.453-1.24-1.31-1.24h-1.603v2.51h1.603m-.12 1.14h-1.483v2.26h-1.412v-7.062h3.187c1.664 0 2.552 1.03 2.552 2.4 0 1-.525 1.806-1.393 2.18l1.472 2.48h-1.635l-1.29-2.26zM126.09 127.167h1.412v7.06h-1.412v-7.06zM129.9 131.2v-1.008c0-1.805.96-3.166 3.087-3.166 1.785 0 2.885 1.21 2.956 2.65h-1.312c-.09-.795-.592-1.49-1.642-1.49-1.18 0-1.684.806-1.684 1.936v1.15c0 1.13.504 1.936 1.684 1.936 1.05 0 1.554-.696 1.644-1.493h1.313c-.07 1.443-1.17 2.653-2.956 2.653-2.128 0-3.087-1.362-3.087-3.167zM138.29 127.167h1.413v7.06h-1.412v-7.06zM142.313 127.166h1.342l3.076 4.7v-4.7h1.384v7.06h-1.342l-3.074-4.7v4.7h-1.383v-7.06zM155.13 129.567c-.03-.736-.564-1.38-1.574-1.38-1.15 0-1.693.755-1.693 1.935v1.11c0 1.18.484 2.006 1.704 2.006 1.03 0 1.593-.635 1.593-1.412v-.1h-1.583v-1.15h2.965v.917c0 1.694-1.18 2.874-2.996 2.874-2.098 0-3.086-1.412-3.086-3.166v-1.027c0-1.895 1.13-3.146 3.056-3.146 1.825 0 2.915 1.08 2.956 2.54h-1.342zM163.337 128.337h-1.996v-1.17h5.408v1.17h-1.997v5.89h-1.412v-5.89zM168.793 127.166h1.413v2.896h2.893v-2.896h1.41v7.06h-1.41v-2.915h-2.894v2.917h-1.413v-7.06zM178.756 131.624h2.027l-1.01-3.187-1.017 3.187m4.265 2.602h-1.4l-.473-1.482h-2.743l-.474 1.482h-1.404l2.532-7.06h1.432l2.53 7.06zM185.865 128.337h-1.998v-1.17h5.406v1.17h-1.997v5.89h-1.41v-5.89zM191.32 127.166h1.512l-.907 2.674h-1.12l.515-2.674zM194.305 132.18v-.182h1.35v.15c0 .656.515 1.13 1.463 1.13.837 0 1.38-.373 1.38-1.03 0-.392-.19-.674-.663-.795l-1.846-.474c-1.07-.274-1.575-.768-1.575-1.827 0-1.33 1.008-2.128 2.592-2.128 1.562 0 2.55.867 2.55 2.108v.17h-1.3v-.14c0-.595-.383-1.05-1.25-1.05-.747 0-1.232.303-1.232.918 0 .415.213.646.606.748l1.937.513c1.04.274 1.544.89 1.544 1.847 0 1.34-1.2 2.227-2.793 2.227-1.664 0-2.763-.806-2.763-2.188zM207.04 131.624h2.028l-1.008-3.187-1.02 3.187m4.267 2.602h-1.402l-.474-1.482h-2.74l-.475 1.482h-1.402l2.532-7.06h1.43l2.533 7.06zM213.322 127.166h4.832v1.17h-3.42v1.867h3.117v1.17h-3.114v2.853h-1.413v-7.06zM220.29 127.166h4.833v1.17h-3.42v1.867h3.116v1.17H221.7v2.853h-1.412v-7.06zM231.878 131.28v-1.168c0-1.12-.555-1.917-1.735-1.917-1.18 0-1.735.797-1.735 1.917v1.17c0 1.12.555 1.915 1.735 1.915 1.18 0 1.735-.796 1.735-1.916m1.412-.07c0 1.797-1.07 3.158-3.147 3.158-2.067 0-3.146-1.36-3.146-3.156v-1.027c0-1.796 1.08-3.157 3.146-3.157 2.077 0 3.147 1.36 3.147 3.157v1.028zM238.654 130.828c.868 0 1.31-.535 1.31-1.27 0-.757-.453-1.24-1.31-1.24h-1.603v2.51h1.605m-.12 1.14h-1.483v2.26h-1.412v-7.062h3.188c1.664 0 2.552 1.03 2.552 2.4 0 1-.525 1.806-1.393 2.18l1.473 2.48h-1.634l-1.29-2.26zM248.04 129.93c0-1.03-.593-1.613-1.733-1.613h-1.22v4.76h1.22c1.14 0 1.734-.586 1.734-1.614v-1.533m-1.49-2.764c1.896 0 2.894 1.17 2.894 2.775v1.514c0 1.604-.998 2.774-2.894 2.774h-2.865v-7.06h2.864zM253.214 131.624h2.027l-1.006-3.187-1.02 3.187m4.266 2.602h-1.402l-.474-1.482h-2.743l-.472 1.482h-1.402l2.53-7.06h1.434l2.53 7.06zM262.642 133.117c.676 0 1.05-.373 1.05-.968 0-.586-.393-.96-1.06-.96h-1.764v1.926h1.774m-.29-3.026c.593 0 .917-.392.917-.937 0-.534-.345-.877-.93-.877h-1.473v1.815h1.483m-2.854-2.922h3.166c1.242 0 2.018.726 2.018 1.785 0 .806-.393 1.34-.887 1.624.726.15 1.31.706 1.31 1.663 0 1.18-.978 1.987-2.39 1.987h-3.217v-7.06zM267.19 127.166h1.412v5.89h3.247v1.17h-4.66v-7.06zM274.047 127.166h4.943v1.17h-3.53v1.726h3.227v1.18h-3.228v1.815H279v1.17h-4.953v-7.06zM112.095 148.125h2.027l-1.01-3.187-1.017 3.187m4.265 2.602h-1.4l-.475-1.483h-2.743l-.474 1.483h-1.403l2.533-7.06h1.43l2.532 7.06zM118.376 143.667h1.342l3.075 4.7v-4.7h1.382v7.06h-1.34l-3.077-4.7v4.7h-1.382v-7.06zM131.092 146.43c0-1.028-.594-1.613-1.735-1.613h-1.22v4.76h1.22c1.14 0 1.735-.585 1.735-1.613v-1.533m-1.493-2.762c1.895 0 2.893 1.17 2.893 2.774v1.514c0 1.603-.998 2.773-2.895 2.773h-2.865v-7.06h2.864zM139.743 148.125h2.026l-1.01-3.187-1.02 3.187m4.268 2.602h-1.402l-.475-1.483h-2.74l-.474 1.483h-1.403l2.532-7.06h1.432l2.53 7.06zM146.024 143.667h1.413v5.89h3.246v1.17h-4.66v-7.06zM158.63 148.77l1.018-5.103h1.392l-1.664 7.06h-1.362l-1.542-5.435-1.543 5.435h-1.364l-1.664-7.06h1.392l1.018 5.104 1.472-5.102h1.372l1.473 5.104zM164.256 148.125h2.027l-1.008-3.187-1.02 3.187m4.266 2.602h-1.4l-.473-1.483h-2.743l-.474 1.483h-1.403l2.53-7.06h1.434l2.53 7.06zM172.817 150.727h-1.412v-2.54l-2.42-4.52h1.532l1.593 3.147 1.594-3.146h1.534l-2.42 4.518v2.54zM176.6 148.68v-.182h1.35v.152c0 .655.515 1.13 1.462 1.13.838 0 1.382-.374 1.382-1.03 0-.393-.192-.675-.665-.796l-1.848-.474c-1.07-.273-1.573-.766-1.573-1.825 0-1.33 1.007-2.13 2.59-2.13 1.563 0 2.55.868 2.55 2.11v.17h-1.3v-.14c0-.595-.38-1.05-1.25-1.05-.745 0-1.23.303-1.23.917 0 .415.212.646.606.748l1.936.514c1.04.272 1.543.888 1.543 1.845 0 1.34-1.2 2.227-2.794 2.227-1.663 0-2.762-.807-2.762-2.188zM187.65 143.667h4.832v1.17h-3.42v1.866h3.116v1.17h-3.116v2.854h-1.412v-7.06zM194.67 143.668h1.41v7.06h-1.41v-7.06zM198.69 143.667h1.343l3.076 4.7v-4.7h1.38v7.06h-1.34l-3.077-4.7v4.7h-1.383v-7.06zM208.736 148.125h2.027l-1.01-3.187-1.017 3.187m4.266 2.602H211.6l-.474-1.483h-2.743l-.474 1.483h-1.405l2.533-7.06h1.43l2.532 7.06zM215.017 143.667h1.413v5.89h3.246v1.17h-4.66v-7.06z" fill-rule="evenodd" fill="#5e5e5e"/></svg>