<svg xmlns="http://www.w3.org/2000/svg" width="370" height="365"><path d="M344.308 5.516H90.36c-10.465 0-18.95 8.484-18.95 18.95v161.15c0 10.467 8.485 18.95 18.95 18.95h154.25v32.203l37.862-32.204H347.7c10.465 0 18.95-8.484 18.95-18.95V27.856c0-13.14-9.482-22.34-22.34-22.34z" fill-rule="evenodd" fill="#fff"/><path d="M90.36 6.87c-9.702 0-17.596 7.894-17.596 17.597v161.15c0 9.702 7.894 17.595 17.597 17.595H244.61c.75 0 1.356.607 1.356 1.355v29.27l35.63-30.302c.244-.208.555-.323.877-.323h65.23c9.7 0 17.595-7.893 17.595-17.596V27.856c0-12.16-8.826-20.986-20.986-20.986H90.36m154.247 231.253a1.355 1.355 0 0 1-1.354-1.354v-30.85H90.36c-11.196 0-20.305-9.11-20.305-20.306V24.466c0-11.195 9.11-20.304 20.305-20.304h253.948c13.73 0 23.696 9.965 23.696 23.695v157.76c0 11.196-9.11 20.305-20.306 20.305h-64.73l-37.482 31.88a1.36 1.36 0 0 1-.88.32z" fill-rule="evenodd" fill="#1f7edd"/><path d="M327.032 22.76H73.085c-10.466 0-18.95 8.485-18.95 18.952v161.15c0 10.466 8.484 18.95 18.95 18.95H227.33v32.202l37.864-32.2h65.227c10.47 0 18.953-8.486 18.953-18.953V45.1c0-13.138-9.482-22.34-22.34-22.34z" fill-rule="evenodd" fill="#fff"/><path d="M73.085 24.116c-9.704 0-17.597 7.893-17.597 17.596v161.15c0 9.702 7.893 17.596 17.597 17.596H227.33c.748 0 1.356.607 1.356 1.355v29.27l35.63-30.302a1.36 1.36 0 0 1 .878-.32h65.227c9.705 0 17.6-7.895 17.6-17.598V45.1c0-12.16-8.827-20.985-20.987-20.985H73.085M227.33 255.37a1.357 1.357 0 0 1-1.355-1.356v-30.847H73.085c-11.197 0-20.306-9.11-20.306-20.306V41.714c0-11.196 9.107-20.305 20.304-20.305H327.03c13.73 0 23.696 9.965 23.696 23.695v157.76c0 11.196-9.11 20.305-20.306 20.305h-64.728l-37.483 31.878c-.25.213-.565.324-.88.324z" fill-rule="evenodd" fill="#1f7edd"/><path d="M312.156 40.866H53.463c-10.466 0-18.95 8.484-18.95 18.95v161.15c0 10.467 8.484 18.95 18.95 18.95H207.71v32.203l37.863-32.204H310.8c10.466 0 18.95-8.484 18.95-18.95V58.46c0-10.465-7.128-17.594-17.594-17.594z" fill-rule="evenodd" fill="#fff"/><path d="M53.464 42.22c-9.704 0-17.597 7.894-17.597 17.597v161.15c0 9.702 7.893 17.595 17.597 17.595H207.71c.748 0 1.354.607 1.354 1.355v29.272l35.63-30.306a1.36 1.36 0 0 1 .878-.323H310.8c9.702 0 17.596-7.892 17.596-17.595V58.46c0-9.713-6.527-16.24-16.24-16.24H53.463M207.71 273.474a1.354 1.354 0 0 1-1.355-1.354v-30.846H53.465c-11.198 0-20.307-9.11-20.307-20.307V59.817c0-11.196 9.11-20.305 20.306-20.305h258.69c11.16 0 18.95 7.792 18.95 18.95v162.504c0 11.197-9.107 20.307-20.304 20.307h-64.73l-37.483 31.878a1.35 1.35 0 0 1-.877.324z" fill-rule="evenodd" fill="#1f7edd"/><path d="M84.4 223.883h29.03a5.17 5.17 0 0 1 5.168 5.17v112.31a5.17 5.17 0 0 1-5.17 5.17H19.882a5.17 5.17 0 0 1-5.168-5.17v-112.31a5.17 5.17 0 0 1 5.17-5.17h28.743" fill-rule="evenodd" fill="#fff"/><path d="M113.43 348.03H19.88a6.672 6.672 0 0 1-6.664-6.666V229.05a6.673 6.673 0 0 1 6.665-6.664h28.747v2.994H19.882a3.675 3.675 0 0 0-3.673 3.67v112.314a3.676 3.676 0 0 0 3.67 3.672h93.55a3.676 3.676 0 0 0 3.67-3.672V229.05a3.676 3.676 0 0 0-3.67-3.67H84.4v-2.994h29.03a6.673 6.673 0 0 1 6.664 6.665v112.315a6.673 6.673 0 0 1-6.665 6.665z" fill-rule="evenodd" fill="#1f7edd"/><path d="M89.478 238.834l-7.488-20.942h-8.96a6.4 6.4 0 0 0-6.375-5.87 6.4 6.4 0 0 0-6.374 5.87h-8.96l-7.487 20.942" fill-rule="evenodd" fill="#fff"/><path d="M88.07 239.338l-7.136-19.95H73.03a1.496 1.496 0 0 1-1.493-1.372c-.207-2.522-2.352-4.496-4.882-4.496s-4.674 1.974-4.882 4.496a1.497 1.497 0 0 1-1.492 1.373h-7.904l-7.134 19.947-2.817-1.01 7.488-20.94a1.5 1.5 0 0 1 1.41-.993h7.708c.907-3.382 4.026-5.868 7.628-5.868 3.602 0 6.72 2.486 7.627 5.868h7.707c.63 0 1.195.398 1.408.993l7.49 20.94-2.82 1.01z" fill-rule="evenodd" fill="#1f7edd"/><path d="M104.255 331.6h-75.2v-92.785h75.2V331.6z" fill-rule="evenodd" fill="#fff"/><path d="M30.55 330.104h72.21V240.31H30.55v89.794m73.705 2.993h-75.2c-.827 0-1.497-.67-1.497-1.496v-92.784c0-.827.67-1.497 1.496-1.497h75.2c.828 0 1.498.67 1.498 1.496V331.6c0 .828-.67 1.497-1.497 1.497z" fill-rule="evenodd" fill="#1f7edd"/><path d="M60.2 274.24v24.453l20.96-12.226L60.2 274.24m-1.484 27.036v-29.62l25.388 14.81-25.388 14.81z" fill-rule="evenodd" fill="#97d5ff"/><path d="M50.65 287.24h16.13l8.063 13.967H58.715L50.65 287.24m8.065-15.514h16.128l-8.064 13.968H50.65l8.065-13.968m9.402 14.74L76.18 272.5l8.066 13.966-8.065 13.968-8.062-13.968m8.51-16.285H57.823l-9.402 16.287 9.404 16.286h18.804l9.403-16.286-9.402-16.285z" fill-rule="evenodd" fill="#97d5ff"/><path d="M76.176 76.66h16.31v1.49h-14.53v10.28h13.477v1.526H77.956V100.6h14.57v1.49h-16.35V76.66zM97.686 83.635h1.635v3.74c.837-2.433 3.09-4.176 6.614-4.176 4.105 0 6.756 2.723 6.756 7.3v11.59h-1.744V90.716c0-3.742-1.78-6.03-5.413-6.03-3.343 0-6.104 2.325-6.104 6.648v10.753h-1.745V83.634zM119.632 94.388c0 3.814 2.07 6.72 6.14 6.72 3.595 0 6.32-2.942 6.32-6.793V91.41c0-3.852-2.688-6.794-6.285-6.794-4.033 0-6.175 2.905-6.175 6.72v3.052m14.203-18.82v26.522H132.2v-3.597c-.943 2.253-3.305 4.032-6.72 4.032-4.722 0-7.593-3.45-7.593-8.028v-3.27c0-4.578 2.87-8.028 7.593-8.028 3.306 0 5.63 1.706 6.612 3.85V75.57h1.743zM139.652 90.138h9.772v1.417h-9.772v-1.418zM160.978 102.09c-3.38 0-4.867-1.744-4.867-4.796V85.05h-3.38v-1.415h3.38v-5.34h1.746v5.34h5.085v1.416h-5.084v12.245c0 2.36.872 3.38 3.377 3.38h1.635v1.416h-1.89zM174.604 84.616c-4.032 0-6.285 2.87-6.285 6.684v3.124c0 3.815 2.25 6.685 6.283 6.685s6.285-2.87 6.285-6.687V91.3c0-3.814-2.254-6.684-6.286-6.684m-7.956 9.88V91.23c0-4.505 2.943-8.03 7.956-8.03 5.014 0 7.956 3.525 7.956 8.03v3.27c0 4.504-2.942 8.028-7.956 8.028-5.013 0-7.956-3.524-7.956-8.03zM187.43 90.138h9.774v1.417h-9.773v-1.418zM203.782 92.208h12.097v-1.126c0-3.633-2-6.502-5.96-6.502-4.14 0-6.14 2.723-6.14 6.757v.87m-1.707 2.4V91.41c0-4.943 2.87-8.21 7.848-8.21 4.94 0 7.63 3.63 7.63 7.953v2.47h-13.77v1.09c0 3.597 2.18 6.43 6.25 6.43 3.014 0 4.976-1.706 5.74-4.177h1.525c-.727 3.27-3.524 5.558-7.265 5.558-4.904 0-7.956-3.196-7.956-7.92zM223.11 83.635h1.636v3.74c.836-2.433 3.088-4.176 6.612-4.176 4.106 0 6.758 2.723 6.758 7.3v11.59h-1.744V90.716c0-3.742-1.78-6.03-5.413-6.03-3.345 0-6.106 2.325-6.106 6.648v10.753h-1.744V83.634zM245.057 94.388c0 3.814 2.07 6.72 6.14 6.72 3.596 0 6.32-2.942 6.32-6.793V91.41c0-3.852-2.687-6.794-6.284-6.794-4.033 0-6.176 2.905-6.176 6.72v3.052m14.205-18.82v26.522h-1.635v-3.597c-.945 2.253-3.306 4.032-6.72 4.032-4.724 0-7.594-3.45-7.594-8.028v-3.27c0-4.578 2.87-8.028 7.593-8.028 3.306 0 5.63 1.706 6.612 3.85V75.57h1.744zM88.854 145.69v-11.37c0-3.74-1.743-6.03-5.376-6.03-3.234 0-5.922 2.325-5.922 6.648v10.753h-1.743V127.24h1.634v3.742c.8-2.436 3.016-4.18 6.43-4.18 2.98 0 5.23 1.49 6.176 4.106 1.272-2.652 3.742-4.105 6.865-4.105 4.07 0 6.722 2.726 6.722 7.303v11.59h-1.743V134.32c0-3.74-1.744-6.03-5.378-6.03-3.198 0-5.923 2.325-5.923 6.648v10.753h-1.744zM122.21 140.242c0-2.76-3.38-4.36-6.285-4.36-3.27 0-5.74 1.454-5.74 4.36 0 2.798 2.252 4.54 5.558 4.54 3.088 0 6.467-1.56 6.467-4.54m-13.697-.036c0-3.597 3.088-5.704 7.412-5.704 2.87 0 5.267 1.417 6.285 2.76v-3.67c0-3.05-2-5.375-5.268-5.375-2.725 0-4.54 1.308-5.413 3.414h-1.637c.872-3.05 3.596-4.83 7.048-4.83 4.178 0 7.01 2.908 7.01 6.72v12.17h-1.67v-2.577c-.98 1.562-3.56 3.016-6.647 3.016-4.287 0-7.12-2.47-7.12-5.923zM129.95 127.236h1.636v3.742c.834-2.434 3.087-4.178 6.612-4.178 4.104 0 6.756 2.725 6.756 7.303v11.588h-1.743v-11.37c0-3.74-1.78-6.03-5.41-6.03-3.344 0-6.105 2.326-6.105 6.65v10.752h-1.743v-18.454zM163.52 140.242c0-2.76-3.378-4.36-6.284-4.36-3.27 0-5.74 1.454-5.74 4.36 0 2.798 2.253 4.54 5.558 4.54 3.088 0 6.467-1.56 6.467-4.54m-13.694-.036c0-3.597 3.088-5.704 7.41-5.704 2.87 0 5.27 1.417 6.286 2.76v-3.67c0-3.05-1.997-5.375-5.267-5.375-2.725 0-4.54 1.308-5.413 3.414h-1.634c.87-3.05 3.595-4.83 7.047-4.83 4.178 0 7.012 2.908 7.012 6.72v12.17h-1.67v-2.577c-.982 1.562-3.562 3.016-6.65 3.016-4.287 0-7.12-2.47-7.12-5.923zM184.45 137.263v-2.652c0-3.45-2.762-6.392-6.25-6.392-3.96 0-6.175 2.434-6.175 6.212v2.906c0 3.814 2.143 6.212 6.067 6.212 3.414 0 6.358-2.507 6.358-6.285m-13.806 10.826h1.744c1.2 1.996 3.488 2.976 6.102 2.976 3.634 0 5.96-2.033 5.96-5.23v-4.796c-.69 1.78-3.234 3.925-6.576 3.925-4.687 0-7.557-3.27-7.557-7.447v-3.234c0-4.25 2.834-7.484 7.52-7.484 3.778 0 5.922 2.143 6.685 3.887v-3.45h1.67v18.636c0 3.815-3.377 6.575-7.702 6.575-3.45 0-6.61-1.56-7.846-4.36zM193.28 135.81h12.098v-1.127c0-3.632-1.998-6.502-5.958-6.502-4.14 0-6.14 2.726-6.14 6.76v.87m-1.707 2.4v-3.198c0-4.94 2.87-8.21 7.847-8.21 4.94 0 7.63 3.633 7.63 7.956v2.47h-13.77v1.09c0 3.597 2.18 6.43 6.25 6.43 3.014 0 4.976-1.707 5.74-4.178h1.525c-.726 3.27-3.524 5.56-7.266 5.56-4.907 0-7.958-3.198-7.958-7.92zM225.652 145.69v-11.37c0-3.74-1.744-6.03-5.376-6.03-3.233 0-5.922 2.325-5.922 6.648v10.753h-1.743V127.24h1.636v3.742c.8-2.436 3.016-4.18 6.43-4.18 2.98 0 5.232 1.49 6.176 4.106 1.273-2.652 3.742-4.105 6.867-4.105 4.07 0 6.72 2.726 6.72 7.303v11.59h-1.744V134.32c0-3.74-1.743-6.03-5.376-6.03-3.197 0-5.92 2.325-5.92 6.648v10.753h-1.746zM247.346 135.81h12.098v-1.127c0-3.632-1.998-6.502-5.958-6.502-4.14 0-6.14 2.726-6.14 6.76v.87m-1.708 2.4v-3.198c0-4.94 2.87-8.21 7.848-8.21 4.94 0 7.628 3.633 7.628 7.956v2.47h-13.768v1.09c0 3.597 2.18 6.43 6.25 6.43 3.014 0 4.976-1.707 5.74-4.178h1.525c-.724 3.27-3.522 5.56-7.264 5.56-4.905 0-7.957-3.198-7.957-7.92zM266.676 127.236h1.635v3.742c.837-2.434 3.09-4.178 6.613-4.178 4.106 0 6.758 2.725 6.758 7.303v11.588h-1.742v-11.37c0-3.74-1.78-6.03-5.413-6.03-3.343 0-6.104 2.326-6.104 6.65v10.752h-1.743v-18.454zM294.18 145.69c-3.378 0-4.868-1.742-4.868-4.794v-12.243h-3.38v-1.416h3.38v-5.34h1.744v5.34h5.085v1.416h-5.083v12.243c0 2.36.872 3.378 3.378 3.378h1.635v1.417h-1.89z" fill-rule="evenodd" fill="#1f7edd"/><path d="M75.09 175.814h2.01l-1-3.158-1.01 3.158m4.227 2.578h-1.39l-.47-1.47H74.74l-.47 1.47h-1.39l2.51-6.995h1.42l2.507 6.995zM84.292 176.364v-.18h1.34v.15c0 .65.51 1.12 1.448 1.12.83 0 1.37-.37 1.37-1.02 0-.39-.19-.67-.66-.79l-1.83-.47c-1.058-.27-1.558-.76-1.558-1.808 0-1.32 1-2.11 2.57-2.11 1.548 0 2.527.86 2.527 2.09v.17h-1.29v-.14c0-.59-.38-1.04-1.24-1.04-.74 0-1.22.3-1.22.91 0 .41.21.64.6.74l1.92.51c1.03.27 1.53.88 1.53 1.828 0 1.33-1.19 2.208-2.77 2.208-1.65 0-2.74-.8-2.74-2.168zM92.096 171.397h1.398v6.995h-1.398v-6.995zM96.083 171.397h1.398v5.836h3.22v1.16h-4.616v-6.996zM102.927 171.397h1.4v6.995h-1.4v-6.995zM106.704 175.394v-1c0-1.788.95-3.137 3.057-3.137 1.77 0 2.86 1.2 2.93 2.628h-1.3c-.09-.79-.587-1.48-1.63-1.48-1.167 0-1.666.8-1.666 1.92v1.14c0 1.12.5 1.918 1.668 1.918 1.042 0 1.54-.69 1.63-1.48h1.3c-.07 1.43-1.16 2.63-2.93 2.63-2.107 0-3.056-1.35-3.056-3.14zM119.595 175.474v-1.16c0-1.108-.55-1.898-1.72-1.898s-1.72.79-1.72 1.9v1.158c0 1.11.55 1.9 1.72 1.9s1.72-.79 1.72-1.9m1.398-.07c0 1.78-1.06 3.128-3.117 3.128-2.05 0-3.118-1.35-3.118-3.127v-1.02c0-1.78 1.07-3.128 3.118-3.128 2.058 0 3.117 1.35 3.117 3.128v1.02zM123.32 171.397h1.33l3.048 4.657v-4.657h1.37v6.995h-1.33l-3.05-4.657v4.657h-1.368v-6.995zM137.97 178.393h-1.58l-2.318-6.996h1.43l1.678 5.466 1.68-5.466h1.428l-2.32 6.996zM143.045 175.814h2.008l-1-3.158-1.008 3.158m4.227 2.578h-1.39l-.47-1.47h-2.717l-.47 1.47h-1.39l2.51-6.995h1.418l2.51 6.995zM149.27 171.397h1.398v5.836h3.22v1.16h-4.62v-6.996zM156.063 171.397h1.4v5.836h3.217v1.16h-4.617v-6.996zM162.858 171.397h4.897v1.16h-3.498v1.71h3.198v1.168h-3.198v1.798h3.507v1.16h-4.906v-6.996zM173.14 178.393h-1.398v-2.518l-2.4-4.478h1.52l1.578 3.118 1.58-3.118h1.52l-2.4 4.478v2.518zM183.402 174.985c.89 0 1.29-.55 1.29-1.24s-.4-1.2-1.29-1.2h-1.42v2.44h1.42m-2.82-3.588h2.91c1.61 0 2.6.95 2.6 2.35 0 1.397-1.03 2.387-2.6 2.387h-1.51v2.258h-1.4v-6.995zM191.086 175.025c.858 0 1.3-.53 1.3-1.26 0-.75-.45-1.228-1.3-1.228h-1.59v2.488h1.59m-.12 1.13h-1.47v2.238h-1.4v-6.996h3.16c1.648 0 2.528 1.02 2.528 2.38 0 .988-.52 1.787-1.38 2.157l1.46 2.46h-1.62l-1.28-2.24zM200.678 175.474v-1.16c0-1.108-.55-1.898-1.72-1.898-1.168 0-1.717.79-1.717 1.9v1.158c0 1.11.55 1.9 1.72 1.9s1.72-.79 1.72-1.9m1.4-.07c0 1.78-1.06 3.128-3.12 3.128-2.048 0-3.117-1.35-3.117-3.127v-1.02c0-1.78 1.07-3.128 3.117-3.128 2.058 0 3.117 1.35 3.117 3.128v1.02zM208.72 174.135c0-1.02-.587-1.598-1.717-1.598h-1.21v4.716h1.21c1.13 0 1.718-.58 1.718-1.6v-1.518m-1.477-2.738c1.88 0 2.868 1.16 2.868 2.75v1.498c0 1.588-.99 2.748-2.867 2.748h-2.837v-6.996h2.837zM212.378 175.874v-4.477h1.388v4.537c0 .91.59 1.44 1.49 1.44s1.48-.53 1.48-1.44v-4.537h1.398v4.477c0 1.58-1.07 2.658-2.878 2.658-1.81 0-2.878-1.08-2.878-2.658zM220.412 175.394v-1c0-1.788.95-3.137 3.058-3.137 1.768 0 2.858 1.2 2.928 2.628h-1.3c-.09-.79-.59-1.48-1.628-1.48-1.17 0-1.67.8-1.67 1.92v1.14c0 1.12.5 1.918 1.67 1.918 1.04 0 1.54-.69 1.628-1.48h1.3c-.07 1.43-1.16 2.63-2.928 2.63-2.11 0-3.058-1.35-3.058-3.14zM229.994 172.556h-1.98v-1.16h5.358v1.16h-1.98v5.837h-1.398v-5.837zM245.132 178.393h-1.338v-4.297l-1.31 2.598h-1.238l-1.31-2.598v4.297h-1.34v-6.996h1.29l1.98 3.998 1.977-3.998h1.29v6.996zM249.338 175.814h2.01l-1-3.158-1.01 3.158m4.227 2.578h-1.388l-.47-1.47h-2.718l-.47 1.47h-1.39l2.507-6.995h1.42l2.507 6.995zM255.563 171.397h1.33l3.047 4.657v-4.657h1.37v6.995h-1.33l-3.047-4.657v4.657h-1.37v-6.995zM265.515 175.814h2.01l-1-3.158-1.01 3.158m4.227 2.578h-1.39l-.47-1.47h-2.716l-.47 1.47h-1.39l2.51-6.995h1.42l2.506 6.995zM275.908 173.776c-.03-.73-.56-1.37-1.56-1.37-1.14 0-1.678.75-1.678 1.92v1.098c0 1.17.48 1.99 1.69 1.99 1.018 0 1.578-.63 1.578-1.4v-.1h-1.57v-1.14h2.938v.91c0 1.68-1.17 2.848-2.968 2.848-2.08 0-3.058-1.4-3.058-3.138v-1.02c0-1.877 1.12-3.116 3.03-3.116 1.807 0 2.887 1.07 2.927 2.518h-1.33zM279.634 171.397h4.897v1.16h-3.496v1.71h3.198v1.168h-3.197v1.798h3.507v1.16h-4.906v-6.996zM289.797 175.025c.858 0 1.298-.53 1.298-1.26 0-.75-.45-1.228-1.298-1.228h-1.59v2.488h1.59m-.122 1.13h-1.468v2.238h-1.4v-6.996h3.16c1.648 0 2.528 1.02 2.528 2.38 0 .988-.52 1.787-1.38 2.157l1.46 2.46h-1.62l-1.28-2.24zM78.05 191.825v-1.16c0-1.11-.55-1.898-1.72-1.898s-1.72.79-1.72 1.898v1.16c0 1.11.55 1.9 1.72 1.9s1.72-.79 1.72-1.9m1.397-.07c0 1.78-1.06 3.127-3.117 3.127-2.05 0-3.12-1.348-3.12-3.127v-1.02c0-1.778 1.07-3.128 3.12-3.128 2.058 0 3.117 1.35 3.117 3.128v1.02zM81.774 187.747h1.33l3.048 4.658v-4.658h1.37v6.996h-1.33l-3.05-4.657v4.657h-1.368v-6.996zM93.255 187.747h4.897v1.16h-3.498v1.71h3.198v1.168h-3.198v1.8h3.508v1.158h-4.907v-6.996zM103.777 194.743h-1.58l-2.318-6.995h1.43l1.676 5.465 1.68-5.465h1.428l-2.318 6.995zM108.083 187.747h4.897v1.16h-3.498v1.71h3.198v1.168h-3.198v1.8h3.508v1.158h-4.907v-6.996zM118.245 191.375c.86 0 1.3-.53 1.3-1.26 0-.748-.45-1.228-1.3-1.228h-1.59v2.488h1.59m-.12 1.13h-1.47v2.238h-1.4v-6.995h3.16c1.648 0 2.528 1.02 2.528 2.378 0 .99-.52 1.79-1.38 2.158l1.46 2.46h-1.62l-1.278-2.24zM126 194.743h-1.4v-2.518l-2.4-4.477h1.52l1.58 3.118 1.578-3.118h1.52l-2.4 4.477v2.518zM136.26 191.335c.89 0 1.29-.548 1.29-1.24 0-.69-.4-1.2-1.29-1.2h-1.418v2.44h1.42m-2.82-3.587h2.91c1.607 0 2.596.95 2.596 2.348 0 1.4-1.03 2.39-2.597 2.39h-1.507v2.257h-1.4v-6.995zM143.944 191.375c.86 0 1.3-.53 1.3-1.26 0-.748-.45-1.228-1.3-1.228h-1.59v2.488h1.59m-.12 1.13h-1.47v2.238h-1.398v-6.995h3.158c1.65 0 2.528 1.02 2.528 2.378 0 .99-.52 1.79-1.38 2.158l1.46 2.46h-1.62l-1.278-2.24zM153.537 191.825v-1.16c0-1.11-.55-1.898-1.72-1.898s-1.718.79-1.718 1.898v1.16c0 1.11.547 1.9 1.717 1.9s1.72-.79 1.72-1.9m1.398-.07c0 1.78-1.06 3.127-3.118 3.127-2.048 0-3.118-1.348-3.118-3.127v-1.02c0-1.778 1.07-3.128 3.117-3.128 2.06 0 3.118 1.35 3.118 3.128v1.02zM156.833 192.694v-.1h1.33v.09c0 .64.41 1.04 1.138 1.04.74 0 1.11-.42 1.11-1.04v-4.936h1.4v4.936c0 1.3-1.02 2.198-2.51 2.198-1.527 0-2.466-.85-2.466-2.188zM164.316 187.747h4.898v1.16h-3.5v1.71h3.2v1.168h-3.2v1.8h3.51v1.158h-4.908v-6.996zM171.212 191.745v-1c0-1.788.95-3.138 3.057-3.138 1.767 0 2.857 1.2 2.927 2.63h-1.3c-.09-.79-.588-1.48-1.63-1.48-1.168 0-1.667.8-1.667 1.92v1.138c0 1.12.5 1.918 1.67 1.918 1.04 0 1.54-.688 1.628-1.478h1.3c-.07 1.43-1.16 2.627-2.93 2.627-2.107 0-3.056-1.348-3.056-3.137zM180.794 188.907h-1.98v-1.16h5.358v1.16h-1.98v5.836h-1.398v-5.836z" fill-rule="evenodd" fill="#5e5e5e"/></svg>