<?xml version="1.0" encoding="utf-8"?>
<!-- Generator: Adobe Illustrator 19.0.0, SVG Export Plug-In . SVG Version: 6.00 Build 0)  -->
<svg version="1.1" id="Layer_1" xmlns="http://www.w3.org/2000/svg" xmlns:xlink="http://www.w3.org/1999/xlink" x="0px" y="0px"
	 viewBox="550 -550 1600 1600" style="enable-background:new 550 -550 1600 1600;" xml:space="preserve">
<style type="text/css">
	.st0{fill:#00A9E0;}
	.st1{display:none;}
	.st2{display:inline;fill:#00A9E0;}
	.st3{display:inline;fill:#FFFFFF;}
	.st4{display:inline;}
	.st5{fill:#FFFFFF;}
	.st6{display:inline;fill:#FFFFFF;stroke:#00A9E0;stroke-width:40.0489;stroke-miterlimit:10;}
	.st7{display:inline;fill:none;stroke:#00A9E0;stroke-width:43.75;stroke-miterlimit:10;}
	.st8{fill:none;stroke:#00A9E0;stroke-width:40.0306;stroke-linecap:square;stroke-linejoin:bevel;stroke-miterlimit:10;}
	.st9{fill:none;stroke:#000000;stroke-width:20.0153;stroke-linecap:square;stroke-linejoin:bevel;stroke-miterlimit:10;}
</style>
<g>
	<path class="st0" d="M1350-535.4c-433.5,0-785.2,351.7-785.2,785.2S916.5,1035,1350,1035s785.2-351.7,785.2-785.2
		S1783.5-535.4,1350-535.4z M1350,1001.3c-414.3,0-751.5-337.2-751.5-751.5S935.7-501.7,1350-501.7s751.5,337.2,751.5,751.5
		S1764.3,1001.3,1350,1001.3z"/>
</g>
<g class="st1">
	<path class="st2" d="M1350.8,421.3L1350.8,421.3c-133.6,0-240.4-108.5-240.4-240.4V-64.5h480.8v245.4
		C1592.8,314.4,1484.3,421.3,1350.8,421.3z"/>
	<path class="st2" d="M1133.7,229.3c-35.5,0-68.9-13.8-94.2-38.7c-25.4-25.2-39.4-58.9-39.4-94.8V-31.2h133.6v16.7h-116.9V95.7
		c0,31.5,12.2,60.9,34.5,83c22.1,21.9,51.3,33.9,82.4,33.9V229.3z"/>
	<path class="st2" d="M1567.8,229.3v-16.7c31.1,0,60.3-12,82.4-33.9c22.2-22,34.5-51.5,34.5-83V-14.5h-116.9v-16.7h133.6V95.7
		c0,36-14,69.7-39.4,94.8C1636.7,215.5,1603.3,229.3,1567.8,229.3z"/>
	<rect x="1342.4" y="417.9" class="st2" width="16.7" height="218.7"/>
	<rect x="1218.9" y="628.3" class="st2" width="265.5" height="16.7"/>
	<polygon id="XMLID_28_" class="st3" points="1359.1,80.7 1380.8,124.1 1429.2,130.8 1394.2,165.8 1402.5,214.3 1359.1,192.6 
		1315.7,214.3 1324,165.8 1287.3,130.8 1337.4,124.1 	"/>
</g>
<g class="st1">
	<path class="st3" d="M1262.8,245.5h-15.9v-8c0-37.7,7.5-74.4,22.2-109c14.2-33.4,34.5-63.4,60.3-89.2
		c25.8-25.8,55.9-46.1,89.2-60.3c34.6-14.7,71.3-22.2,109-22.2h8v15.9h-8c-70.4,0-136.8,27.6-187,77.8
		c-50.2,50.2-77.8,116.6-77.8,186.9V245.5z"/>
	<g class="st4">
		<g>
			<circle class="st0" cx="1356.1" cy="219" r="294.2"/>
		</g>
		<path class="st5" d="M1159.5,180.6h-16v-8c0-44.7,17.5-86.8,49.3-118.6s73.9-49.3,118.6-49.3h8v16h-8
			c-40.4,0-78.5,15.8-107.3,44.6c-28.8,28.8-44.6,66.9-44.6,107.3V180.6z"/>
	</g>
	<polygon class="st2" points="1047.6,-73.6 1060.3,-49.6 1087.5,-44.8 1066.7,-25.6 1071.5,1.6 1047.6,-11.2 1023.6,1.6 
		1028.4,-25.6 1007.6,-44.8 1034.8,-49.6 	"/>
	<polygon class="st2" points="1651.9,-60.8 1664.7,-36.8 1691.9,-33.6 1671.1,-14.4 1675.9,12.7 1651.9,0 1627.9,12.7 1632.7,-14.4 
		1611.9,-33.6 1639.1,-36.8 	"/>
	<polygon class="st3" points="1506.4,298.9 1519.2,324.5 1546.4,327.7 1527.2,346.9 1532,374.1 1506.4,361.3 1482.4,374.1 
		1487.2,346.9 1468,327.7 1495.2,324.5 	"/>
	<polygon class="st2" points="1020.4,300.5 1033.2,326.1 1060.3,329.3 1039.6,348.5 1044.4,375.7 1020.4,362.9 996.4,375.7 
		1001.2,348.5 982,329.3 1009.2,326.1 	"/>
	<polygon class="st2" points="1720.7,271.8 1733.5,295.7 1760.6,298.9 1739.8,318.1 1744.6,345.3 1720.7,332.5 1696.7,345.3 
		1701.5,318.1 1680.7,298.9 1707.9,295.7 	"/>
	<g class="st4">
		<polygon class="st5" points="1519.2,465.2 1193,465.2 1145.1,596.3 1567.2,596.3 		"/>
		<path class="st0" d="M1578.6,604.3h-445l53.8-147.1h337.3L1578.6,604.3z M1156.5,588.3h399.2l-42.1-115.1h-315L1156.5,588.3z"/>
	</g>
</g>
<g class="st1">
	<path class="st2" d="M1603.2,602.2c-47.8,0-93-17.7-128-50c-35.1,32.3-80.2,50-128,50c-47.8,0-93-17.7-128-50
		c-35.1,32.3-80.2,50-128,50c-50.4,0-97.9-19.7-133.7-55.5l11.4-11.4c32.8,32.8,76.2,50.8,122.4,50.8s89.6-18,122.4-50.8l5.7-5.7
		l5.7,5.7c32.8,32.8,76.2,50.8,122.4,50.8s89.6-18,122.4-50.8l5.7-5.7l5.7,5.7c32.8,32.8,76.2,50.8,122.4,50.8s89.6-18,122.4-50.8
		l11.4,11.4C1701.1,582.5,1653.6,602.2,1603.2,602.2z"/>
	<path class="st2" d="M1731.2,479.8c-22.5,9.7-41.9,12.9-64.4,12.9c-127.2,0-231.9-103.1-231.9-231.9
		c0-127.2,103.1-231.9,231.9-231.9c3.2,0,6.4,0,9.7,0C1612-32.4,1525.1-71,1428.4-71c-198.1,0-359.2,161.1-359.2,359.2v43.5v41.9
		c-3.2,59.6-48.3,106.3-106.3,106.3l0,0l0,0c70.9,70.9,185.2,70.9,256.1,0c70.9,70.9,185.2,70.9,256.1,0
		C1546,550.7,1660.4,550.7,1731.2,479.8"/>
	<path class="st3" d="M1188.4,289.8h-16.1v-8.1c0-75.4,29.6-146.5,83.3-200.2c53.7-53.7,124.8-83.3,200.2-83.3h8.1v16.1h-8.1
		c-71.1,0-138.1,27.9-188.8,78.6c-50.7,50.7-78.6,117.7-78.6,188.8V289.8z"/>
	<path class="st4" d="M1736.1,479.8"/>
</g>
<g class="st1">
	<g class="st4">
		<g>
			<circle class="st0" cx="1347.4" cy="208.4" r="364.4"/>
		</g>
		<path class="st5" d="M1105.1,160.4h-20v-10c0-113.7,92.5-206.3,206.3-206.3h10v20h-10c-102.7,0-186.2,83.5-186.2,186.2V160.4z"/>
	</g>
	<polygon class="st2" points="966.9,-154 980.9,-124 1015,-118 991,-93.9 997,-61.9 966.9,-77.9 936.9,-61.9 942.9,-93.9 
		918.9,-118 950.9,-124 	"/>
	<polygon class="st2" points="1711.8,-138 1727.9,-107.9 1761.9,-103.9 1737.9,-79.9 1741.9,-45.9 1711.8,-61.9 1681.8,-45.9 
		1687.8,-79.9 1663.8,-103.9 1697.8,-107.9 	"/>
	<polygon class="st3" points="1533.6,306.6 1549.6,336.6 1581.7,342.6 1557.6,366.6 1563.7,398.7 1533.6,382.7 1503.6,398.7 
		1509.6,366.6 1485.6,342.6 1519.6,336.6 	"/>
	<polygon class="st2" points="932.9,308.6 948.9,338.6 980.9,344.6 956.9,368.6 962.9,400.7 932.9,384.7 902.8,400.7 908.9,368.6 
		884.8,344.6 918.9,338.6 	"/>
	<polygon class="st2" points="1797.9,272.5 1812,302.6 1846,306.6 1822,330.6 1828,364.6 1797.9,348.6 1767.9,364.6 1773.9,330.6 
		1749.9,306.6 1781.9,302.6 	"/>
	<polygon class="st6" points="1549.6,510.8 1147.1,510.8 1087.1,673 1607.7,673 	"/>
</g>
<g class="st1">
	<path class="st2" d="M1725.2-147H977.1c0,616.9,330.3,441.9,330.3,660.6c-2.2,140,30.6,179.4-185.9,179.4v35h457.2v-37.2l0,0
		c-227.5,0-188.1-39.4-188.1-179.4C1390.5,294.9,1725.2,467.7,1725.2-147z"/>
	<polygon id="XMLID_3_" class="st3" points="1351.1,6.1 1383.9,71.8 1456.1,80.5 1403.6,130.8 1416.8,203 1351.1,170.2 1287.7,203 
		1300.8,130.8 1248.3,80.5 1320.5,71.8 	"/>
	<path class="st7" d="M1351.1-68.2H874.2V54.3c0,109.4,87.5,196.9,196.9,196.9h280h280c109.4,0,196.9-87.5,196.9-196.9V-68.2H1351.1
		z"/>
</g>
<g>
	<circle class="st8" cx="1348.4" cy="260" r="456.3"/>
	<path class="st9" d="M1126.2,155.9L1126.2,155.9C1128.2,153.9,1128.2,153.9,1126.2,155.9L1126.2,155.9z"/>
	<path class="st0" d="M1412.4,514.2c-62-60-2-268.2,186.1-124.1c-16-64-44-96.1-94.1-136.1c44,12,90.1,42,124.1,70.1
		c-20-44-56-94.1-92.1-124.1c50,12,90.1,28,128.1,62c-24-54-58-90.1-104.1-122.1c36,6,72.1,20,104.1,38c-18-30-38-62-68.1-82.1
		c-98.1-62-190.1-62-190.1-62C1124.2,7.8,930.1,332,924.1,464.1c116.1,202.2,344.3,290.2,538.4,238.2
		c130.1-36,240.2-118.1,272.2-238.2C1626.6,614.3,1490.5,590.2,1412.4,514.2z"/>
</g>
</svg>
